<?xml version="1.0" encoding="utf-8"?>
<!-- Generator: Adobe Illustrator 26.5.0, SVG Export Plug-In . SVG Version: 6.00 Build 0)  -->
<svg version="1.1" id="Слой_1" xmlns="http://www.w3.org/2000/svg" xmlns:xlink="http://www.w3.org/1999/xlink" x="0px" y="0px"
	 viewBox="0 0 100.4 110.9" style="enable-background:new 0 0 100.4 110.9;" xml:space="preserve">
<style type="text/css">
	.st0{fill:#FFFFFF;}
	.st1{fill:#B3B3B3;}
</style>
<g>
	<polygon class="st0" points="41.2,51.1 52,57.8 52,52.1 41.1,45.5 	"/>
	<polygon class="st1" points="75.1,45 52,57.8 52,52.1 75.1,39.3 	"/>
	<polygon class="st0" points="41.2,61.9 52,68.6 52,62.9 41.1,56.3 	"/>
	<polygon class="st1" points="75.1,55.7 52,68.6 52,62.9 75.1,50.1 	"/>
	<polygon class="st0" points="41.2,72.7 52,79.4 52,73.7 41.1,67.1 	"/>
	<polygon class="st1" points="75.1,66.5 52,79.4 52,73.7 75.1,60.9 	"/>
	<polygon class="st0" points="33.7,69.5 33.7,44.2 52,34.3 65.3,41.6 70,38.7 52,28.9 29.2,41.2 29.2,66.6 	"/>
</g>
<g>
	<path class="st0" d="M178.9-99.4h7.9c2.6,0,4.9,0.5,6.9,1.5c2,1,3.6,2.4,4.7,4.2c1.1,1.8,1.7,3.9,1.7,6.3c0,2.4-0.6,4.5-1.7,6.3
		c-1.1,1.9-2.7,3.3-4.7,4.3c-2,1-4.3,1.6-6.9,1.6h-7.9V-99.4z M186.8-79.6c1.6,0,3-0.3,4.3-1c1.2-0.6,2.2-1.5,2.9-2.7
		c0.7-1.2,1-2.5,1-4.1c0-2.4-0.7-4.2-2.2-5.6c-1.5-1.3-3.5-2-5.9-2h-2.9v15.3H186.8z"/>
	<path class="st0" d="M218.4-75.1L208-87.7v12.7h-5v-24.3h5v11.3l9.3-11.3h5.9l-9.3,11.4l10.5,12.8H218.4z"/>
	<path class="st0" d="M243.1-97.6h-8.9v-1.7h19.7v1.7H245v22.6h-1.9V-97.6z"/>
	<path class="st0" d="M257.1-99.4h15.2v1.7H259v8.6h10.3v1.7H259v10.5h13.7v1.7h-15.6V-99.4z"/>
	<path class="st0" d="M280.5-76.4c-1.9-1.1-3.4-2.6-4.5-4.5c-1.1-1.9-1.7-4-1.7-6.3c0-2.3,0.6-4.4,1.7-6.3c1.1-1.9,2.6-3.4,4.5-4.5
		c1.9-1.1,4-1.7,6.3-1.7c2,0,3.9,0.4,5.6,1.3c1.7,0.9,3.1,2.1,4.2,3.6l-1.4,1.1c-1-1.3-2.2-2.4-3.6-3.2c-1.4-0.8-3-1.1-4.8-1.1
		c-2,0-3.7,0.5-5.3,1.4c-1.6,0.9-2.8,2.2-3.8,3.9c-0.9,1.6-1.4,3.5-1.4,5.4c0,2,0.5,3.8,1.4,5.5c0.9,1.6,2.2,2.9,3.8,3.9
		c1.6,0.9,3.4,1.4,5.3,1.4c1.7,0,3.3-0.4,4.8-1.1c1.4-0.7,2.6-1.8,3.6-3.1l1.4,1.1c-1.1,1.5-2.5,2.7-4.2,3.6
		c-1.7,0.9-3.6,1.3-5.6,1.3C284.5-74.7,282.4-75.3,280.5-76.4z"/>
	<path class="st0" d="M301-99.4h1.9v10.3h14.9v-10.3h1.9v24.3h-1.9v-12.2h-14.9v12.2H301V-99.4z"/>
	<path class="st0" d="M344.4-99.4v24.6h-0.8l-16.1-20.6v20.2h-1.9v-24.6h0.7L342.5-79v-20.3H344.4z"/>
	<path class="st0" d="M350.4-99.4h1.9v24.3h-1.9V-99.4z"/>
	<path class="st0" d="M358.2-99.4h1.9v24.3h-1.9V-99.4z M375.9-75.1h-2.5l-12.7-13.1l11.8-11.1h2.5l-11.8,11.2L375.9-75.1z"/>
	<path class="st0" d="M379.5-99.4h1.9v24.3h-1.9V-99.4z"/>
</g>
<g>
	<path class="st1" d="M183.6-62.5c0.8,0.2,1.2,0.9,1.2,1.6c0,0.5-0.2,1-0.6,1.3c-0.4,0.3-0.8,0.5-1.4,0.5h-2.6v-6.4h2.4
		c1.1,0,1.9,0.5,1.9,1.6C184.4-63.4,184.1-62.8,183.6-62.5L183.6-62.5z M180.9-64.8v2h1.5c0.5,0,1.2-0.2,1.2-1c0-0.6-0.4-1-1.1-1
		H180.9z M182.5-62.2h-1.6v2.4h1.7c0.5,0,0.9-0.1,1.1-0.4c0.2-0.3,0.3-0.5,0.3-0.9C184-61.7,183.4-62.2,182.5-62.2z"/>
	<path class="st1" d="M196-65.5h0.8v4c0,0.7-0.2,1.3-0.7,1.8S195-59,194.3-59c-1.6,0-2.5-1-2.5-2.5v-4h0.8v3.9c0,0.5,0.1,1,0.4,1.3
		c0.3,0.3,0.7,0.5,1.3,0.5c1.1,0,1.7-0.7,1.7-1.8V-65.5z"/>
	<path class="st1" d="M204.9-59.1h-0.8v-6.4h0.8V-59.1z"/>
	<path class="st1" d="M212.2-65.5h0.8v5.7h3.3v0.7h-4.1V-65.5z"/>
	<path class="st1" d="M222.9-59.1v-6.4h2.2c1,0,1.7,0.3,2.3,0.9c0.6,0.6,0.8,1.3,0.8,2.3s-0.3,1.7-0.8,2.3s-1.3,0.9-2.2,0.9H222.9z
		 M226.8-64.1c-0.4-0.5-1-0.7-1.8-0.7h-1.4v5.1h1.5c0.7,0,1.3-0.2,1.7-0.7c0.4-0.5,0.6-1.1,0.6-1.8C227.4-63,227.2-63.6,226.8-64.1z
		"/>
	<path class="st1" d="M236-59.1h-0.8v-6.4h0.8V-59.1z"/>
	<path class="st1" d="M244.1-59.1h-0.8v-6.4h0.2l4.4,4.8h0v-4.8h0.8v6.4h-0.2l-4.4-4.9h0V-59.1z"/>
	<path class="st1" d="M256.6-64.6c0.6-0.6,1.4-1,2.4-1c0.7,0,1.3,0.1,1.7,0.3v0.7c-0.5-0.3-1.1-0.4-1.7-0.4c-0.7,0-1.4,0.2-1.8,0.7
		c-0.5,0.5-0.7,1.1-0.7,1.9c0,0.8,0.2,1.4,0.7,1.9c0.4,0.5,1.1,0.7,1.9,0.7c0.5,0,0.9-0.1,1.3-0.2v-2.4h0.7v2.9
		c-0.5,0.3-1.3,0.4-2.1,0.4c-1,0-1.8-0.3-2.4-0.9c-0.6-0.6-0.8-1.4-0.8-2.3C255.7-63.2,256-64,256.6-64.6z"/>
	<path class="st1" d="M276.9-59.1h-0.8v-6.4h0.8V-59.1z"/>
	<path class="st1" d="M285-59.1h-0.8v-6.4h0.2l4.4,4.8h0v-4.8h0.8v6.4h-0.2l-4.4-4.9h0V-59.1z"/>
	<path class="st1" d="M297.7-59.1h-0.8v-6.4h0.2l4.4,4.8h0v-4.8h0.8v6.4h-0.2l-4.4-4.9h0V-59.1z"/>
	<path class="st1" d="M310.1-59.9c-0.6-0.6-0.9-1.4-0.9-2.3c0-0.9,0.3-1.7,1-2.3c0.6-0.6,1.4-1,2.3-1c0.9,0,1.7,0.3,2.3,1
		c0.6,0.6,0.9,1.4,0.9,2.3s-0.3,1.7-0.9,2.3c-0.6,0.6-1.4,0.9-2.3,0.9C311.5-59,310.7-59.3,310.1-59.9z M310.7-60.4
		c0.5,0.5,1.1,0.7,1.8,0.7c0.7,0,1.3-0.3,1.8-0.8c0.5-0.5,0.7-1.1,0.7-1.9c0-0.7-0.2-1.4-0.7-1.9c-0.5-0.5-1.1-0.8-1.8-0.8
		s-1.3,0.3-1.8,0.8c-0.5,0.5-0.7,1.1-0.7,1.9C310.1-61.5,310.3-60.9,310.7-60.4z"/>
	<path class="st1" d="M324.5-59.1h-0.2l-2.7-6.4h0.8l1.9,4.8h0l1.9-4.8h0.8L324.5-59.1z"/>
	<path class="st1" d="M337.2-59.1l-0.6-1.4h-3l-0.6,1.4h-0.8l2.8-6.4h0.1l2.8,6.4H337.2z M335.1-64l-1.2,2.9h2.5L335.1-64L335.1-64z
		"/>
	<path class="st1" d="M348.1-64.8h-2v5.7h-0.8v-5.7h-2v-0.7h4.8V-64.8z"/>
	<path class="st1" d="M355.6-59.1h-0.8v-6.4h0.8V-59.1z"/>
	<path class="st1" d="M363.5-59.9c-0.6-0.6-0.9-1.4-0.9-2.3c0-0.9,0.3-1.7,1-2.3c0.6-0.6,1.4-1,2.3-1c0.9,0,1.7,0.3,2.3,1
		c0.6,0.6,0.9,1.4,0.9,2.3s-0.3,1.7-0.9,2.3c-0.6,0.6-1.4,0.9-2.3,0.9C365-59,364.1-59.3,363.5-59.9z M364.1-60.4
		c0.5,0.5,1.1,0.7,1.8,0.7c0.7,0,1.3-0.3,1.8-0.8c0.5-0.5,0.7-1.1,0.7-1.9c0-0.7-0.2-1.4-0.7-1.9c-0.5-0.5-1.1-0.8-1.8-0.8
		c-0.7,0-1.3,0.3-1.8,0.8c-0.5,0.5-0.7,1.1-0.7,1.9C363.5-61.5,363.7-60.9,364.1-60.4z"/>
	<path class="st1" d="M377-59.1h-0.8v-6.4h0.2l4.4,4.8h0v-4.8h0.8v6.4h-0.2l-4.4-4.9h0V-59.1z"/>
</g>
</svg>
